<?xml version="1.0" standalone="no"?>
<!DOCTYPE svg PUBLIC "-//W3C//DTD SVG 20010904//EN"
 "http://www.w3.org/TR/2001/REC-SVG-20010904/DTD/svg10.dtd">
<svg version="1.0" xmlns="http://www.w3.org/2000/svg"
 width="500.000000pt" height="500.000000pt" viewBox="0 0 500.000000 500.000000"
 preserveAspectRatio="xMidYMid meet">

<g transform="translate(0.000000,500.000000) scale(0.100000,-0.100000)"
fill="#000000" stroke="none">
<path d="M1475 3521 c-16 -10 -38 -27 -48 -39 -46 -51 -46 -54 -47 -864 l0
-768 -91 0 -91 0 36 -47 c36 -47 61 -79 226 -293 45 -58 106 -138 137 -177 30
-40 59 -75 63 -78 8 -5 62 61 222 269 64 83 122 157 191 243 31 40 57 74 57
77 0 4 -43 6 -95 6 l-95 0 0 450 c0 311 3 450 11 450 10 0 89 -41 263 -137 43
-24 80 -43 82 -43 2 0 48 -24 101 -53 54 -30 177 -96 273 -147 208 -111 284
-176 331 -278 29 -64 49 -150 49 -209 l0 -33 -95 0 c-111 0 -109 9 -20 -105
313 -402 387 -495 395 -490 4 3 41 48 81 101 41 52 94 121 119 153 25 32 72
93 105 137 33 43 82 106 109 139 l49 60 -96 3 -97 3 -2 793 -3 793 -29 37
c-49 65 -124 82 -202 47 -23 -10 -81 -43 -130 -71 -49 -29 -138 -82 -199 -118
-60 -36 -155 -92 -210 -125 -55 -33 -138 -82 -185 -110 l-85 -49 -152 78 c-84
43 -153 79 -153 80 0 1 20 32 45 70 29 44 41 70 33 73 -6 2 -90 -2 -185 -9
-115 -8 -177 -9 -185 -3 -7 6 -58 34 -113 63 -55 29 -104 56 -110 60 -5 4 -42
24 -81 44 -81 41 -133 46 -179 17z m211 -466 l59 -180 5 -550 5 -550 38 -3
c20 -2 37 -5 37 -7 0 -4 -105 -143 -142 -188 l-23 -28 -40 52 c-22 29 -59 76
-82 105 -24 30 -43 56 -43 59 0 3 17 8 39 11 l38 6 0 727 c0 576 2 731 13 750
l13 25 12 -25 c7 -13 39 -105 71 -204z m1703 189 c21 -26 21 -33 21 -745 l0
-719 23 -1 c12 -1 30 -1 40 0 18 2 24 -23 8 -33 -5 -4 -34 -39 -65 -79 -30
-39 -63 -82 -74 -95 l-18 -23 -87 111 c-48 60 -87 111 -87 113 0 1 19 2 42 2
l43 0 3 623 c1 342 0 622 -3 622 -12 0 -73 -34 -181 -101 -62 -38 -119 -69
-129 -69 -23 0 -175 83 -172 93 1 5 25 21 52 36 56 31 206 121 370 223 89 54
118 67 152 68 33 0 46 -5 62 -26z m-1272 -107 c-2 -12 -8 -29 -11 -38 -8 -19
5 -28 164 -112 604 -318 661 -353 715 -438 31 -48 57 -139 53 -186 l-3 -37
-28 42 c-38 58 -33 55 -582 342 -49 26 -168 88 -264 139 l-174 93 -23 -29
c-12 -15 -26 -25 -30 -21 -8 9 -39 99 -64 185 l-17 62 71 5 c39 4 89 7 111 9
22 1 51 3 64 4 19 3 23 -1 18 -20z"/>
</g>
</svg>
